<svg id="visual" viewBox="0 0 1920 1080" width="1920" height="1080" xmlns="http://www.w3.org/2000/svg" xmlns:xlink="http://www.w3.org/1999/xlink" version="1.1"><path d="M0 627L137 627L137 506L274 506L274 544L411 544L411 697L549 697L549 613L686 613L686 642L823 642L823 681L960 681L960 523L1097 523L1097 592L1234 592L1234 694L1371 694L1371 657L1509 657L1509 530L1646 530L1646 612L1783 612L1783 703L1920 703L1920 679L1920 1081L1920 1081L1783 1081L1783 1081L1646 1081L1646 1081L1509 1081L1509 1081L1371 1081L1371 1081L1234 1081L1234 1081L1097 1081L1097 1081L960 1081L960 1081L823 1081L823 1081L686 1081L686 1081L549 1081L549 1081L411 1081L411 1081L274 1081L274 1081L137 1081L137 1081L0 1081Z" fill="#80f9ff"></path><path d="M0 593L137 593L137 727L274 727L274 612L411 612L411 761L549 761L549 711L686 711L686 769L823 769L823 721L960 721L960 568L1097 568L1097 770L1234 770L1234 660L1371 660L1371 707L1509 707L1509 718L1646 718L1646 701L1783 701L1783 703L1920 703L1920 619L1920 1081L1920 1081L1783 1081L1783 1081L1646 1081L1646 1081L1509 1081L1509 1081L1371 1081L1371 1081L1234 1081L1234 1081L1097 1081L1097 1081L960 1081L960 1081L823 1081L823 1081L686 1081L686 1081L549 1081L549 1081L411 1081L411 1081L274 1081L274 1081L137 1081L137 1081L0 1081Z" fill="#85f2f7"></path><path d="M0 799L137 799L137 742L274 742L274 625L411 625L411 792L549 792L549 792L686 792L686 726L823 726L823 627L960 627L960 671L1097 671L1097 727L1234 727L1234 770L1371 770L1371 674L1509 674L1509 620L1646 620L1646 631L1783 631L1783 836L1920 836L1920 775L1920 1081L1920 1081L1783 1081L1783 1081L1646 1081L1646 1081L1509 1081L1509 1081L1371 1081L1371 1081L1234 1081L1234 1081L1097 1081L1097 1081L960 1081L960 1081L823 1081L823 1081L686 1081L686 1081L549 1081L549 1081L411 1081L411 1081L274 1081L274 1081L137 1081L137 1081L0 1081Z" fill="#89ebf0"></path><path d="M0 677L137 677L137 728L274 728L274 831L411 831L411 876L549 876L549 797L686 797L686 767L823 767L823 836L960 836L960 720L1097 720L1097 860L1234 860L1234 718L1371 718L1371 716L1509 716L1509 856L1646 856L1646 763L1783 763L1783 749L1920 749L1920 783L1920 1081L1920 1081L1783 1081L1783 1081L1646 1081L1646 1081L1509 1081L1509 1081L1371 1081L1371 1081L1234 1081L1234 1081L1097 1081L1097 1081L960 1081L960 1081L823 1081L823 1081L686 1081L686 1081L549 1081L549 1081L411 1081L411 1081L274 1081L274 1081L137 1081L137 1081L0 1081Z" fill="#8ce4e8"></path><path d="M0 818L137 818L137 882L274 882L274 788L411 788L411 915L549 915L549 911L686 911L686 897L823 897L823 822L960 822L960 883L1097 883L1097 874L1234 874L1234 903L1371 903L1371 844L1509 844L1509 884L1646 884L1646 845L1783 845L1783 819L1920 819L1920 910L1920 1081L1920 1081L1783 1081L1783 1081L1646 1081L1646 1081L1509 1081L1509 1081L1371 1081L1371 1081L1234 1081L1234 1081L1097 1081L1097 1081L960 1081L960 1081L823 1081L823 1081L686 1081L686 1081L549 1081L549 1081L411 1081L411 1081L274 1081L274 1081L137 1081L137 1081L0 1081Z" fill="#90dde0"></path><path d="M0 823L137 823L137 931L274 931L274 866L411 866L411 888L549 888L549 939L686 939L686 910L823 910L823 843L960 843L960 902L1097 902L1097 874L1234 874L1234 939L1371 939L1371 883L1509 883L1509 882L1646 882L1646 845L1783 845L1783 895L1920 895L1920 944L1920 1081L1920 1081L1783 1081L1783 1081L1646 1081L1646 1081L1509 1081L1509 1081L1371 1081L1371 1081L1234 1081L1234 1081L1097 1081L1097 1081L960 1081L960 1081L823 1081L823 1081L686 1081L686 1081L549 1081L549 1081L411 1081L411 1081L274 1081L274 1081L137 1081L137 1081L0 1081Z" fill="#92d6d9"></path><path d="M0 957L137 957L137 973L274 973L274 914L411 914L411 906L549 906L549 953L686 953L686 945L823 945L823 976L960 976L960 918L1097 918L1097 995L1234 995L1234 934L1371 934L1371 888L1509 888L1509 912L1646 912L1646 954L1783 954L1783 909L1920 909L1920 936L1920 1081L1920 1081L1783 1081L1783 1081L1646 1081L1646 1081L1509 1081L1509 1081L1371 1081L1371 1081L1234 1081L1234 1081L1097 1081L1097 1081L960 1081L960 1081L823 1081L823 1081L686 1081L686 1081L549 1081L549 1081L411 1081L411 1081L274 1081L274 1081L137 1081L137 1081L0 1081Z" fill="#95cfd1"></path><path d="M0 1001L137 1001L137 1005L274 1005L274 1016L411 1016L411 1010L549 1010L549 1009L686 1009L686 995L823 995L823 994L960 994L960 1020L1097 1020L1097 1023L1234 1023L1234 1008L1371 1008L1371 962L1509 962L1509 970L1646 970L1646 987L1783 987L1783 1002L1920 1002L1920 1011L1920 1081L1920 1081L1783 1081L1783 1081L1646 1081L1646 1081L1509 1081L1509 1081L1371 1081L1371 1081L1234 1081L1234 1081L1097 1081L1097 1081L960 1081L960 1081L823 1081L823 1081L686 1081L686 1081L549 1081L549 1081L411 1081L411 1081L274 1081L274 1081L137 1081L137 1081L0 1081Z" fill="#97c8ca"></path></svg>